<svg width="256" height="256" viewBox="0 0 256 256" fill="none" xmlns="http://www.w3.org/2000/svg">
<g clip-path="url(#clip0_1_8)">
<circle cx="128" cy="128" r="128" fill="white"/>
<path d="M202.575 113.838C198.871 112.514 195.723 112.116 191.363 113.772C181.822 117.416 170.347 117.416 151.79 118.144C98.2174 120.264 79.9556 112.514 75.2672 108.638C72.2509 106.154 69.8575 103.935 65.7264 104.001C61.7593 104.068 57.2021 106.32 54.3497 109.003C50.9071 112.216 47.8253 116.356 46.7433 121.026C45.9565 124.437 45.2352 129.604 47.6941 132.552C52.5137 138.315 57.3332 141.958 64.3167 144.939C74.5787 149.311 86.3489 150.404 97.3322 151.232C115.266 152.557 133.43 151.928 151.396 151.133C162.249 150.636 173.199 150.106 183.953 148.516C188.51 147.854 194.018 148.152 198.117 145.734C203.789 142.356 207.362 136.328 209.297 129.935C211.231 123.477 209.231 116.223 202.608 113.872L202.575 113.838Z" fill="black"/>
</g>
<defs>
<clipPath id="clip0_1_8">
<rect width="256" height="256" fill="white"/>
</clipPath>
</defs>
</svg>
