<svg width="256" height="256" viewBox="0 0 256 256" fill="none" xmlns="http://www.w3.org/2000/svg">
<rect width="256" height="256" fill="white"/>
<path d="M90.9599 111.3C84.6199 111.21 74.7799 112.91 69.6199 117.18C65.2699 120.78 63.3899 125.76 59.4999 134.05C58.5199 126.8 58.8999 127.64 58.1399 120.38C57.6599 115.75 48.8399 117.63 48.6699 120.9C48.5299 123.65 48.0699 126.47 47.0599 131.14C46.3699 134.33 39.5599 149.96 32.4799 149.46C25.5899 148.96 27.0899 139.86 29.6199 134.85C31.9299 130.26 36.4199 124.3 42.0499 122.87C47.8199 121.41 48.2099 119.95 47.9899 117.21C47.6799 113.26 39.6999 114.44 33.5199 117.75C25.6699 121.94 20.5299 131.05 19.2899 139.97C18.3199 146.96 19.3899 159.91 28.8799 160C38.4699 159.31 44.9599 152.38 49.8999 145C50.1699 147.98 50.4599 148.95 51.2699 151.85C54.4599 162.78 64.6299 151.54 67.0899 145.35C69.7199 138.74 71.1199 133.66 74.3199 126.63C75.2899 124.49 75.7399 122.58 81.8099 122.3C86.5199 122.08 91.7899 122.33 94.5999 116.96C95.6299 115 94.1799 111.36 90.9599 111.31V111.3Z" fill="black"/>
<path d="M105.15 75.06C97.58 74.44 99.34 78.79 99.4 84.31C99.6 101.99 95.47 135.18 99.55 141.82C100.93 144.06 104.33 145.27 106.83 145.25C109.94 145.07 127.14 145.25 132.27 130.94C133.36 127.9 133.55 124.3 132.06 121.38C130.93 119.18 128.77 117.78 126.55 116.88C123.06 115.48 117.13 115.23 113.94 115.56C111.26 115.84 108.97 118.74 108.35 121.42C107.87 123.49 108.96 126.13 111.73 125.68C118.98 124.51 124.47 125.24 124.8 128.17C125.07 130.5 117.41 134.64 113.96 134.88C109.91 135.17 108.36 134.88 108.02 131.57C106.18 113.76 109.36 97.2 109 79.54C108.95 77.06 109.35 75.05 105.16 75.06" fill="black"/>
<path d="M167.29 142.54C167.33 138.08 166.79 132.14 166.65 129.45C166.51 126.65 166.36 123.84 166.11 121.04C165.89 118.5 165.54 114.89 162.04 115.42C158.35 115.98 156.72 117.67 155.99 119.97C152.76 130.22 142.72 138.38 141.55 135.66C140.65 133.58 142.39 127.7 148.96 122.44C151.58 120.34 155.15 118.58 154.57 115.73C154.03 113.08 153.32 112.48 151.48 112.64C149.15 112.84 144.75 114.91 142.97 116.43C138.76 120.04 136.02 125.35 135 130.77C134.43 133.78 133.62 137.64 134.77 140.6C135.66 142.9 139.66 145.84 146.8 142.25C149.22 141.03 151.53 139.47 153.61 137.74C154.98 136.6 156.3 135.35 157.52 134.02C157.61 135.87 157.84 141.22 157.81 143.07C157.66 151.55 167.27 146.39 167.3 142.54H167.29Z" fill="black"/>
<path d="M236.75 125.54C235.62 125.14 234.66 125.02 233.33 125.52C230.42 126.62 226.92 126.62 221.26 126.84C204.92 127.48 199.35 125.14 197.92 123.97C197 123.22 196.27 122.55 195.01 122.57C193.8 122.59 192.41 123.27 191.54 124.08C190.49 125.05 189.55 126.3 189.22 127.71C188.98 128.74 188.76 130.3 189.51 131.19C190.98 132.93 192.45 134.03 194.58 134.93C197.71 136.25 201.3 136.58 204.65 136.83C210.12 137.23 215.66 137.04 221.14 136.8C224.45 136.65 227.79 136.49 231.07 136.01C232.46 135.81 234.14 135.9 235.39 135.17C237.12 134.15 238.21 132.33 238.8 130.4C239.39 128.45 238.78 126.26 236.76 125.55L236.75 125.54Z" fill="black"/>
</svg>
